<svg viewBox="0 0 24 24"><path d="M22.5 1.47h-1.45v5.9h1.45c.83 0 1.5-.69 1.5-1.53V2.99c0-.84-.67-1.52-1.5-1.52zM24 13.49v-2.85c0-.84-.67-1.52-1.5-1.52h-1.45v5.9h1.45c.83 0 1.5-.7 1.5-1.53zM21.05 22.47v.2h1.45c.83 0 1.5-.69 1.5-1.53v-2.85c0-.84-.67-1.52-1.5-1.52h-1.44v5.7zM18.54.08c-.14-.05-.3-.08-.47-.08H4.66v24h13.4c.83 0 1.5-.68 1.5-1.5V1.52v-.06a1.52 1.52 0 00-1-1.38h-.02zm-6.97 11.48H7.8a1 1 0 01-1-1.01 1 1 0 011-1.03h3.75a1 1 0 011 1.02v.01a1 1 0 01-1 1zm3.75-4.63H7.81a1 1 0 01-1-1.01V5.9a1 1 0 011-1.02h7.51a1 1 0 011 1.02 1 1 0 01-1 1.02zM1.02.08C.42.3 0 .86 0 1.52v20.96C0 23.32.67 24 1.5 24H2.9V0H1.5c-.17 0-.33.03-.48.08z"/></svg>